# xmcd
#
# Track frame offsets: 
#        150
#        16227
#        35322
#        52885
#        100667
#        124357
#        147297
#        169790
#        202397
#
# Disc length: 2965 seconds
#
# Revision: 9
# Processed by: cddbd v1.5.2PL0 Copyright (c) Steve Scherf et al.
# Submitted via: ExactAudioCopyFreeDBPlugin 1.0
#
DISCID=790b9309
DTITLE=Claude Nougaro - NougaYork
DYEAR=1987
DGENRE=Jazz
TTITLE0=NougaYork
TTITLE1=Rythm'flouze
TTITLE2=Harlem
TTITLE3=Un écureuil à Central Park
TTITLE4=Lady Liberty
TTITLE5=Le petit oiseau de Marrakech
TTITLE6=Le gardien de phare
TTITLE7=Nougarock (Un écureuil à Central Park)
TTITLE8=Il faut tourner la page
EXTD=YEAR: 1987
EXTT0=
EXTT1=
EXTT2=
EXTT3=
EXTT4=
EXTT5=
EXTT6=
EXTT7=
EXTT8=
PLAYORDER=
